<svg id="Capa_1" enable-background="new 0 0 512 512" height="512" viewBox="0 0 512 512" width="512" xmlns="http://www.w3.org/2000/svg"><g><g><g><g><g><g><g><path d="m113.299 109.641v323.994h-33.562v-323.994c0-9.273 7.508-16.781 16.781-16.781 9.262 0 16.781 7.508 16.781 16.781z" fill="#fcb44d"/><g fill="#fca62f"><path d="m113.299 109.641v66.202c-5.403 1.203-11.027 1.824-16.781 1.824s-11.378-.622-16.781-1.824v-66.202c0-9.273 7.508-16.781 16.781-16.781 9.262 0 16.781 7.508 16.781 16.781z"/><path d="m79.737 221.886h33.562v36.61h-33.562z"/><path d="m79.737 298.744h33.562v29.422h-33.562z"/><path d="m79.737 358.892h33.562v38.945h-33.562z"/></g><path d="m176.924 470.665h-160.819c-4.753 0-8.605-3.853-8.605-8.605v-17.389c0-9.505 7.705-17.211 17.211-17.211h143.608c9.505 0 17.211 7.705 17.211 17.211v17.389c-.001 4.753-3.854 8.605-8.606 8.605z" fill="#fddaa9"/><path d="m185.529 444.669v17.391c0 4.75-3.855 8.605-8.605 8.605h-29.258c4.75 0 8.605-3.855 8.605-8.605v-17.391c0-9.5-7.702-17.211-17.211-17.211h29.258c9.509.001 17.211 7.711 17.211 17.211z" fill="#ffc988"/></g><g><circle cx="96.515" cy="99.479" fill="#64b9fc" r="58.144"/><path d="m154.653 99.481c0 32.114-26.024 58.138-58.138 58.138-6.412 0-12.569-1.033-18.337-2.965 23.126-7.673 39.8-29.471 39.8-55.174 0-25.702-16.674-47.514-39.8-55.187 5.768-1.932 11.925-2.965 18.337-2.965 32.114.002 58.138 26.04 58.138 58.153z" fill="#31a7fb"/></g></g><g><path d="m132.077 238.444h-71.793c-9.327 0-16.889-7.561-16.889-16.889 0-9.327 7.561-16.889 16.889-16.889h71.794c9.327 0 16.889 7.561 16.889 16.889-.001 9.328-7.562 16.889-16.89 16.889z" fill="#c5e2ff"/><path d="m148.97 221.559c0 4.661-1.895 8.882-4.952 11.939-3.057 3.048-7.278 4.942-11.939 4.942h-24.941c4.661 0 8.882-1.895 11.939-4.942 3.057-3.057 4.952-7.278 4.952-11.939 0-9.333-7.569-16.891-16.891-16.891h24.941c9.322 0 16.891 7.558 16.891 16.891z" fill="#8dcafc"/></g><g><path d="m140.602 308.115h-88.843c-9.327 0-16.889-7.561-16.889-16.889 0-9.327 7.561-16.889 16.889-16.889h88.843c9.327 0 16.889 7.561 16.889 16.889 0 9.327-7.561 16.889-16.889 16.889z" fill="#c5e2ff"/><path d="m157.495 291.23c0 4.661-1.895 8.882-4.952 11.939-3.057 3.048-7.278 4.942-11.939 4.942h-24.941c4.661 0 8.882-1.895 11.939-4.942 3.057-3.057 4.952-7.278 4.952-11.939 0-9.333-7.569-16.891-16.891-16.891h24.941c9.322 0 16.891 7.558 16.891 16.891z" fill="#8dcafc"/></g><g><path d="m151.969 377.785h-111.577c-9.327 0-16.889-7.561-16.889-16.889 0-9.327 7.561-16.889 16.889-16.889h111.576c9.327 0 16.889 7.561 16.889 16.889 0 9.328-7.561 16.889-16.888 16.889z" fill="#c5e2ff"/><path d="m168.861 360.901c0 4.661-1.895 8.882-4.952 11.939-3.057 3.048-7.278 4.942-11.939 4.942h-24.941c4.661 0 8.882-1.895 11.939-4.942 3.057-3.057 4.952-7.278 4.952-11.939 0-9.333-7.569-16.891-16.891-16.891h24.941c9.323-.001 16.891 7.558 16.891 16.891z" fill="#8dcafc"/></g></g></g><g><g><g><g><path d="m432.27 109.641v323.994h-33.562v-323.994c0-9.273 7.508-16.781 16.781-16.781 9.262 0 16.781 7.508 16.781 16.781z" fill="#fcb44d"/><g fill="#fca62f"><path d="m432.27 109.641v66.202c-5.403 1.203-11.027 1.824-16.781 1.824s-11.378-.622-16.781-1.824v-66.202c0-9.273 7.508-16.781 16.781-16.781 9.262 0 16.781 7.508 16.781 16.781z"/><path d="m398.707 221.886h33.562v36.61h-33.562z"/><path d="m398.707 298.744h33.562v29.422h-33.562z"/><path d="m398.707 358.892h33.562v38.945h-33.562z"/></g><path d="m495.895 470.665h-160.819c-4.753 0-8.605-3.853-8.605-8.605v-17.389c0-9.505 7.705-17.211 17.211-17.211h143.608c9.505 0 17.211 7.705 17.211 17.211v17.389c-.001 4.753-3.854 8.605-8.606 8.605z" fill="#fddaa9"/><path d="m504.5 444.669v17.391c0 4.75-3.855 8.605-8.605 8.605h-29.258c4.75 0 8.605-3.855 8.605-8.605v-17.391c0-9.5-7.702-17.211-17.211-17.211h29.258c9.509.001 17.211 7.711 17.211 17.211z" fill="#ffc988"/></g><g><circle cx="415.485" cy="99.479" fill="#64b9fc" r="58.144"/><path d="m473.624 99.481c0 32.114-26.024 58.138-58.138 58.138-6.412 0-12.569-1.033-18.337-2.965 23.126-7.673 39.8-29.471 39.8-55.174 0-25.702-16.674-47.514-39.8-55.187 5.768-1.932 11.925-2.965 18.337-2.965 32.113.002 58.138 26.04 58.138 58.153z" fill="#31a7fb"/></g></g><g><path d="m451.048 238.444h-71.794c-9.327 0-16.889-7.561-16.889-16.889 0-9.327 7.561-16.889 16.889-16.889h71.794c9.327 0 16.889 7.561 16.889 16.889 0 9.328-7.561 16.889-16.889 16.889z" fill="#c5e2ff"/><path d="m467.941 221.559c0 4.661-1.895 8.882-4.952 11.939-3.057 3.048-7.278 4.942-11.939 4.942h-24.941c4.661 0 8.882-1.895 11.939-4.942 3.057-3.057 4.952-7.278 4.952-11.939 0-9.333-7.569-16.891-16.891-16.891h24.941c9.322 0 16.891 7.558 16.891 16.891z" fill="#8dcafc"/></g><g><path d="m459.573 308.115h-88.844c-9.327 0-16.889-7.561-16.889-16.889 0-9.327 7.561-16.889 16.889-16.889h88.844c9.327 0 16.889 7.561 16.889 16.889 0 9.327-7.562 16.889-16.889 16.889z" fill="#c5e2ff"/><path d="m476.466 291.23c0 4.661-1.895 8.882-4.952 11.939-3.057 3.048-7.278 4.942-11.939 4.942h-24.941c4.661 0 8.882-1.895 11.939-4.942 3.057-3.057 4.952-7.278 4.952-11.939 0-9.333-7.569-16.891-16.891-16.891h24.941c9.322 0 16.891 7.558 16.891 16.891z" fill="#8dcafc"/></g><g><path d="m470.939 377.785h-111.576c-9.327 0-16.889-7.561-16.889-16.889 0-9.327 7.561-16.889 16.889-16.889h111.576c9.327 0 16.889 7.561 16.889 16.889 0 9.328-7.561 16.889-16.889 16.889z" fill="#c5e2ff"/><path d="m487.832 360.901c0 4.661-1.895 8.882-4.952 11.939-3.057 3.048-7.278 4.942-11.939 4.942h-24.941c4.661 0 8.882-1.895 11.939-4.942 3.057-3.057 4.952-7.278 4.952-11.939 0-9.333-7.569-16.891-16.891-16.891h24.941c9.322-.001 16.891 7.558 16.891 16.891z" fill="#8dcafc"/></g></g></g></g></g><path d="m487.289 419.961h-47.524v-34.675h31.175c13.448 0 24.389-10.941 24.389-24.389s-10.94-24.389-24.389-24.389h-31.175v-20.894h19.809c13.448 0 24.389-10.941 24.389-24.389s-10.94-24.389-24.389-24.389h-19.809v-20.894h11.283c13.448 0 24.389-10.941 24.389-24.389s-10.94-24.389-24.389-24.389h-11.283v-36.717c24.209-9.675 41.365-33.349 41.365-60.971 0-11.386-2.979-22.622-8.613-32.493-2.054-3.598-6.635-4.848-10.231-2.795-3.598 2.054-4.85 6.635-2.796 10.232 4.345 7.61 6.641 16.274 6.641 25.056 0 27.925-22.719 50.645-50.645 50.645s-50.645-22.719-50.645-50.645 22.719-50.644 50.645-50.644c7.872 0 15.424 1.765 22.447 5.246 3.714 1.84 8.211.321 10.05-3.39 1.84-3.711.322-8.211-3.39-10.051-9.111-4.516-18.904-6.805-29.107-6.805-33.659 0-61.468 25.469-65.203 58.144h-25.774c-3.032 0-5.766 1.826-6.928 4.626l-9.104 21.949-19.574-62.323c-.981-3.125-3.879-5.252-7.155-5.252s-6.174 2.127-7.155 5.253l-18.595 59.214-18.596-59.214c-.981-3.126-3.879-5.253-7.155-5.253s-6.174 2.127-7.155 5.253l-19.57 62.321-9.104-21.947c-1.162-2.801-3.896-4.626-6.928-4.626h-25.769c-3.735-32.675-31.544-58.144-65.203-58.144-36.197 0-65.645 29.448-65.645 65.644 0 27.621 17.156 51.295 41.365 60.971v36.717h-11.954c-13.448 0-24.389 10.941-24.389 24.389s10.941 24.389 24.389 24.389h11.951v20.894h-20.476c-13.448 0-24.389 10.941-24.389 24.389s10.941 24.389 24.389 24.389h20.476v20.894h-31.843c-13.448 0-24.389 10.941-24.389 24.389s10.941 24.389 24.389 24.389h31.843v34.675h-47.525c-13.625 0-24.71 11.085-24.71 24.71v17.389c0 8.88 7.225 16.105 16.105 16.105h20.561c4.142 0 7.5-3.358 7.5-7.5s-3.358-7.5-7.5-7.5h-20.561c-.609 0-1.105-.496-1.105-1.105v-17.389c0-5.354 4.356-9.71 9.71-9.71h143.608c5.354 0 9.711 4.356 9.711 9.71v17.389c0 .609-.496 1.105-1.105 1.105h-106.257c-4.142 0-7.5 3.358-7.5 7.5s3.358 7.5 7.5 7.5h106.257c8.88 0 16.105-7.225 16.105-16.105v-17.389c0-13.625-11.085-24.71-24.711-24.71h-47.524v-34.675h31.175c13.448 0 24.389-10.941 24.389-24.389s-10.941-24.389-24.389-24.389h-31.175v-20.894h19.808c13.448 0 24.389-10.941 24.389-24.389s-10.941-24.389-24.389-24.389h-19.808v-20.894h11.283c13.448 0 24.389-10.941 24.389-24.389s-10.941-24.389-24.389-24.389h-11.283v-36.717c21.985-8.786 38.14-29.12 40.924-53.471h20.761l15.088 36.374c1.166 2.81 3.906 4.626 6.926 4.626.111 0 .223-.002.335-.007 3.151-.14 5.877-2.237 6.822-5.246l18.595-59.214 18.596 59.214c.981 3.126 3.879 5.253 7.155 5.253 3.277 0 6.173-2.127 7.156-5.253l18.595-59.216 18.599 59.216c.945 3.009 3.671 5.105 6.822 5.245 3.16.142 6.052-1.706 7.261-4.619l15.089-36.374h20.765c2.784 24.351 18.939 44.684 40.924 53.471v36.717h-11.952c-13.448 0-24.389 10.941-24.389 24.389s10.94 24.389 24.389 24.389h11.952v20.894h-20.477c-13.448 0-24.389 10.941-24.389 24.389s10.94 24.389 24.389 24.389h20.477v20.894h-31.843c-13.448 0-24.389 10.941-24.389 24.389s10.94 24.389 24.389 24.389h31.843v34.675h-5.207c-4.143 0-7.5 3.358-7.5 7.5s3.357 7.5 7.5 7.5h101.289c5.354 0 9.711 4.356 9.711 9.71v17.389c0 .609-.496 1.105-1.105 1.105h-160.819c-.609 0-1.105-.496-1.105-1.105v-17.389c0-5.354 4.356-9.71 9.711-9.71h8.318c4.143 0 7.5-3.358 7.5-7.5s-3.357-7.5-7.5-7.5h-8.318c-13.626 0-24.711 11.085-24.711 24.71v17.389c0 8.88 7.225 16.105 16.105 16.105h160.818c8.881 0 16.105-7.225 16.105-16.105v-17.389c.001-13.625-11.084-24.71-24.71-24.71zm-381.495 0h-18.559v-34.675h18.559zm55.563-59.064c0 5.177-4.212 9.389-9.389 9.389h-111.576c-5.177 0-9.389-4.212-9.389-9.389s4.212-9.389 9.389-9.389h111.577c5.177 0 9.388 4.212 9.388 9.389zm-55.563-24.389h-18.559v-20.894h18.559zm44.197-45.282c0 5.177-4.212 9.389-9.389 9.389h-88.843c-5.177 0-9.389-4.212-9.389-9.389s4.212-9.389 9.389-9.389h88.843c5.177 0 9.389 4.212 9.389 9.389zm-44.197-24.389h-18.559v-20.894h18.559zm35.672-45.282c0 5.177-4.212 9.389-9.389 9.389h-71.793c-5.177 0-9.389-4.212-9.389-9.389s4.212-9.389 9.389-9.389h71.793c5.177.001 9.389 4.212 9.389 9.389zm-35.672-24.388h-18.559v-32.711c3.034.431 6.129.668 9.28.668s6.246-.237 9.279-.668zm-9.279-47.044c-27.925 0-50.645-22.719-50.645-50.645s22.719-50.644 50.645-50.644 50.644 22.719 50.644 50.644-22.719 50.645-50.644 50.645zm309.691 14.332c3.033.431 6.129.668 9.279.668s6.246-.237 9.279-.668v32.711h-18.559v-32.711zm-36.341 57.1c0-5.177 4.212-9.389 9.389-9.389h71.794c5.177 0 9.389 4.212 9.389 9.389s-4.212 9.389-9.389 9.389h-71.794c-5.177 0-9.389-4.212-9.389-9.389zm36.341 24.389h18.559v20.894h-18.559zm-44.865 45.282c0-5.177 4.212-9.389 9.389-9.389h88.844c5.177 0 9.389 4.212 9.389 9.389s-4.212 9.389-9.389 9.389h-88.844c-5.177 0-9.389-4.212-9.389-9.389zm44.865 24.389h18.559v20.894h-18.559zm-56.231 45.282c0-5.177 4.212-9.389 9.389-9.389h111.576c5.177 0 9.389 4.212 9.389 9.389s-4.212 9.389-9.389 9.389h-111.577c-5.176 0-9.388-4.212-9.388-9.389zm56.231 24.389h18.559v34.675h-18.559z"/></g></svg>